<svg width="191" height="38" viewBox="0 0 191 38" fill="none" xmlns="http://www.w3.org/2000/svg">
<path fill-rule="evenodd" clip-rule="evenodd" d="M16.5 0L24.7501 4.75006L33 9.50013V17.6096L16.4632 27.1693L11.7525 24.4462L28.2752 14.895V12.2129L16.4633 5.38466L4.65113 12.2129V25.7871L16.4632 32.6153L33 23.0559V28.5L24.7501 33.2499L16.5 38L8.24991 33.2499L0 28.5V19.0001V9.50013L8.24991 4.75006L16.5 0Z" fill="#003150"/>
<path fill-rule="evenodd" clip-rule="evenodd" d="M16.2089 11L21 13.8533L9 21V15.2932L16.2089 11Z" fill="#1CA2A3"/>
<path d="M42 7.58454H55.3686V9.85771H44.3418V17.1647H55.271V19.4381H44.3418V28.6286H55.271V30.9018H42V7.58433V7.58454ZM57.4233 13.6575H59.7491L65.5661 26.2472L71.3396 13.6575H73.7194L65.8154 30.902H65.3926L57.4233 13.6575V13.6575ZM91.6583 25.1864L93.534 26.1715C92.916 27.3678 92.2059 28.3365 91.398 29.0727C90.5902 29.8034 89.6849 30.3662 88.6765 30.7505C87.6627 31.1349 86.5243 31.3243 85.2503 31.3243C82.4204 31.3243 80.214 30.4042 78.6201 28.5639C77.0264 26.7236 76.2295 24.6451 76.2295 22.3285C76.2295 20.1473 76.907 18.1986 78.2569 16.4937C79.9647 14.3232 82.2577 13.2354 85.1257 13.2354C88.0802 13.2354 90.4438 14.3505 92.2057 16.5749C93.458 18.1446 94.0977 20.1038 94.1195 22.4584H78.5064C78.5497 24.4557 79.195 26.0903 80.4365 27.3623C81.6833 28.6396 83.2231 29.2783 85.05 29.2783C85.9336 29.2783 86.7956 29.1269 87.6306 28.8238C88.4654 28.5206 89.1757 28.1202 89.7612 27.6167C90.3466 27.1134 90.9809 26.3069 91.6585 25.1864H91.6583ZM91.68 20.5424C91.3819 19.3571 90.9482 18.4152 90.379 17.7062C89.8043 16.997 89.0508 16.4287 88.113 15.9958C87.1751 15.5628 86.1884 15.3463 85.1584 15.3463C83.4506 15.3463 81.9869 15.8876 80.7619 16.9755C79.8618 17.7712 79.1897 18.9565 78.7289 20.5424H91.6802H91.68ZM97.3669 13.6575H99.6436V16.1798C100.321 15.1837 101.037 14.4477 101.79 13.9606C102.544 13.479 103.33 13.2354 104.143 13.2354C104.761 13.2354 105.417 13.4303 106.117 13.8199L104.957 15.6817C104.49 15.4816 104.1 15.3786 103.78 15.3786C103.037 15.3786 102.322 15.6817 101.633 16.288C100.945 16.8943 100.419 17.8414 100.056 19.1189C99.7793 20.0986 99.6436 22.085 99.6436 25.0727V30.902H97.3669V13.6575V13.6575ZM116.715 15.5303L115.284 17.0025C114.097 15.8549 112.931 15.2812 111.798 15.2812C111.077 15.2812 110.459 15.5193 109.944 15.9956C109.429 16.4665 109.169 17.024 109.169 17.6573C109.169 18.2148 109.38 18.7506 109.803 19.2539C110.226 19.7735 111.12 20.3798 112.476 21.078C114.124 21.9277 115.246 22.7559 115.842 23.5461C116.422 24.3473 116.715 25.2512 116.715 26.2525C116.715 27.6707 116.216 28.8668 115.219 29.8519C114.221 30.8316 112.974 31.3241 111.478 31.3241C110.481 31.3241 109.532 31.1075 108.621 30.6746C107.716 30.2415 106.968 29.6462 106.371 28.883L107.77 27.2971C108.903 28.5746 110.112 29.2132 111.386 29.2132C112.275 29.2132 113.034 28.9263 113.663 28.358C114.286 27.7897 114.601 27.1185 114.601 26.35C114.601 25.7167 114.395 25.1537 113.983 24.6559C113.565 24.1686 112.633 23.557 111.18 22.821C109.619 22.0201 108.556 21.2297 107.998 20.4504C107.434 19.671 107.152 18.7833 107.152 17.7819C107.152 16.4776 107.602 15.3951 108.497 14.5289C109.397 13.6683 110.53 13.2354 111.901 13.2354C113.495 13.2354 115.1 13.9986 116.715 15.5303H116.715ZM120.624 7H122.836V16.7698C123.735 15.59 124.733 14.7023 125.812 14.1176C126.896 13.5276 128.067 13.2354 129.33 13.2354C130.626 13.2354 131.775 13.5602 132.778 14.215C133.781 14.87 134.524 15.7522 135.001 16.851C135.478 17.9551 135.716 19.6819 135.716 22.0363V30.9022H133.504V22.6858C133.504 20.7048 133.423 19.3788 133.266 18.713C132.99 17.5765 132.485 16.7213 131.759 16.142C131.032 15.5683 130.078 15.2814 128.896 15.2814C127.547 15.2814 126.338 15.7252 125.27 16.6129C124.202 17.495 123.497 18.5939 123.155 19.9036C122.944 20.7481 122.835 22.3068 122.835 24.5854V30.902H120.623V7H120.624ZM155.043 25.1862L156.919 26.1713C156.301 27.3676 155.59 28.3363 154.783 29.0725C153.975 29.8032 153.069 30.366 152.061 30.7503C151.047 31.1347 149.909 31.3241 148.635 31.3241C145.805 31.3241 143.599 30.404 142.005 28.5637C140.411 26.7234 139.614 24.6449 139.614 22.3283C139.614 20.1471 140.292 18.1984 141.642 16.4935C143.349 14.323 145.642 13.2352 148.51 13.2352C151.465 13.2352 153.828 14.3502 155.59 16.5747C156.842 18.1443 157.482 20.1036 157.504 22.4582H141.891C141.934 24.4555 142.579 26.0901 143.821 27.3621C145.068 28.6394 146.607 29.2781 148.434 29.2781C149.318 29.2781 150.18 29.1267 151.015 28.8235C151.85 28.5204 152.56 28.12 153.145 27.6165C153.731 27.1132 154.365 26.3067 155.043 25.1862H155.043ZM155.065 20.5422C154.767 19.3569 154.333 18.415 153.764 17.706C153.189 16.9968 152.435 16.4285 151.498 15.9956C150.56 15.5626 149.573 15.3461 148.543 15.3461C146.835 15.3461 145.372 15.8874 144.146 16.9753C143.246 17.771 142.574 18.9563 142.113 20.5422H155.065ZM176.18 25.1862L178.056 26.1713C177.438 27.3676 176.728 28.3363 175.92 29.0725C175.112 29.8032 174.207 30.366 173.198 30.7503C172.185 31.1347 171.046 31.3241 169.772 31.3241C166.942 31.3241 164.736 30.404 163.142 28.5637C161.548 26.7234 160.751 24.6449 160.751 22.3283C160.751 20.1471 161.429 18.1984 162.779 16.4935C164.486 14.323 166.78 13.2352 169.647 13.2352C172.602 13.2352 174.965 14.3502 176.727 16.5747C177.98 18.1443 178.619 20.1036 178.641 22.4582H163.028C163.071 24.4555 163.717 26.0901 164.958 27.3621C166.205 28.6394 167.744 29.2781 169.571 29.2781C170.455 29.2781 171.317 29.1267 172.152 28.8235C172.987 28.5204 173.697 28.12 174.283 27.6165C174.868 27.1132 175.502 26.3067 176.18 25.1862H176.18ZM176.202 20.5422C175.904 19.3569 175.47 18.415 174.901 17.706C174.326 16.9968 173.573 16.4285 172.635 15.9956C171.697 15.5626 170.71 15.3461 169.68 15.3461C167.972 15.3461 166.509 15.8874 165.284 16.9753C164.384 17.771 163.712 18.9563 163.251 20.5422H176.202ZM184.654 7.2272H186.865V13.6573H190.378V15.5733H186.865V30.9018H184.654V15.5733H181.628V13.6573H184.654V7.2272V7.2272Z" fill="#003150"/>
</svg>
